<svg width="95" height="124" viewBox="0 0 95 124" fill="none" xmlns="http://www.w3.org/2000/svg">
<path d="M58.455 109.536C54.359 109.536 50.775 108.768 47.703 107.232C44.7163 105.696 41.943 103.563 39.383 100.832C36.823 98.1013 34.135 94.9013 31.319 91.232C28.8443 87.8187 26.711 85.344 24.919 83.808C23.127 82.272 20.951 81.504 18.391 81.504C16.0017 81.504 13.9963 82.272 12.375 83.808C10.839 85.344 10.071 87.6053 10.071 90.592C10.071 93.2373 10.8817 95.456 12.503 97.248C14.2097 99.04 16.5137 99.936 19.415 99.936C22.3163 99.936 24.7057 99.0827 26.583 97.376C28.5457 95.6693 30.2097 93.1947 31.575 89.952L38.359 97.632C36.7377 99.936 35.031 101.984 33.239 103.776C31.447 105.568 29.399 106.976 27.095 108C24.8763 109.024 22.103 109.536 18.775 109.536C14.2523 109.536 10.6257 108.597 7.895 106.72C5.16433 104.843 3.159 102.453 1.879 99.552C0.684333 96.5653 0.0870001 93.4933 0.0870001 90.336C0.0870001 86.5813 0.897667 83.3387 2.519 80.608C4.14033 77.8773 6.31633 75.744 9.047 74.208C11.7777 72.672 14.807 71.904 18.135 71.904C21.207 71.904 23.9377 72.4587 26.327 73.568C28.7163 74.592 31.063 76.256 33.367 78.56C35.671 80.7787 38.1883 83.7227 40.919 87.392C43.223 90.3787 45.271 92.768 47.063 94.56C48.855 96.352 50.6897 97.632 52.567 98.4C54.4443 99.0827 56.6203 99.424 59.095 99.424C63.3617 99.424 66.6043 98.0587 68.823 95.328C71.127 92.512 72.279 88.544 72.279 83.424C72.279 78.4747 71.2977 74.1653 69.335 70.496C67.3723 66.7413 64.6843 63.4987 61.271 60.768C57.8577 58.0373 54.0177 55.7333 49.751 53.856L54.615 44C59.9057 46.2187 64.6843 49.2053 68.951 52.96C73.2177 56.7147 76.5883 61.1093 79.063 66.144C81.623 71.0933 82.903 76.5973 82.903 82.656C82.903 88.288 81.9217 93.1093 79.959 97.12C78.0817 101.131 75.3083 104.203 71.639 106.336C68.055 108.469 63.6603 109.536 58.455 109.536ZM79.831 124C76.0763 124 72.9617 123.232 70.487 121.696C68.0123 120.245 66.1777 118.283 64.983 115.808C63.7883 113.333 63.191 110.688 63.191 107.872C63.191 106.763 63.2337 105.739 63.319 104.8C63.4897 103.861 63.7457 102.837 64.087 101.728L75.479 101.6C74.967 102.539 74.583 103.477 74.327 104.416C74.1563 105.269 74.071 106.123 74.071 106.976C74.071 108.341 74.327 109.536 74.839 110.56C75.351 111.669 76.0337 112.523 76.887 113.12C77.8257 113.717 78.935 114.016 80.215 114.016C81.8363 114.016 83.2443 113.717 84.439 113.12C85.719 112.608 87.1697 111.669 88.791 110.304L94.807 118.24C92.4177 120.203 90.1137 121.653 87.895 122.592C85.7617 123.531 83.0737 124 79.831 124ZM9.175 38.88C9.175 36.1493 9.85767 33.8027 11.223 31.84C12.5883 29.8773 14.5937 28.0853 17.239 26.464L17.111 28.768C14.2097 27.232 11.991 25.3547 10.455 23.136C8.919 20.832 8.151 18.2293 8.151 15.328C8.151 13.024 8.57767 11.0187 9.431 9.312C10.2843 7.60533 11.479 6.15466 13.015 4.95999C14.2097 4.02133 15.6177 3.25333 17.239 2.656C18.8603 1.97333 20.9083 1.504 23.383 1.24799C25.943 0.906659 29.1857 0.735992 33.111 0.735992H69.847V10.336H31.063C28.1617 10.336 26.071 10.4213 24.791 10.592C23.511 10.7627 22.487 11.0613 21.719 11.488C20.7803 11.9147 20.055 12.5547 19.543 13.408C19.031 14.176 18.775 15.1147 18.775 16.224C18.775 17.3333 18.9883 18.3147 19.415 19.168C19.8417 20.0213 20.5243 20.704 21.463 21.216C22.3163 21.6427 23.4257 21.984 24.791 22.24C26.2417 22.4107 28.2897 22.496 30.935 22.496H48.471V32.096H30.423C28.0337 32.096 26.1563 32.2667 24.791 32.608C23.511 32.864 22.5297 33.248 21.847 33.76C20.4817 34.784 19.799 36.2347 19.799 38.112C19.799 39.136 19.9697 40.032 20.311 40.8C20.7377 41.568 21.2497 42.1653 21.847 42.592C22.615 43.1893 23.5963 43.5733 24.791 43.744C25.9857 43.9147 27.5217 44 29.399 44H34.135V53.6H29.271C25.2603 53.6 21.719 53.088 18.647 52.064C15.6603 51.04 13.3137 49.4613 11.607 47.328C9.98567 45.1093 9.175 42.2933 9.175 38.88Z" fill="white"/>
</svg>
