<svg width="128" height="95" viewBox="0 0 128 95" fill="none" xmlns="http://www.w3.org/2000/svg">
<path d="M26.9045 38.6C24.4298 38.6 22.0405 38.1307 19.7365 37.192C17.5178 36.2533 15.4698 34.504 13.5925 31.944C11.7152 29.2987 10.0938 25.5867 8.7285 20.808L19.3525 17.352C20.6325 22.0453 21.8698 25.16 23.0645 26.696C24.2592 28.232 25.7952 29 27.6725 29C29.3792 29 30.9578 28.488 32.4085 27.464C33.9445 26.3547 36.0778 24.0933 38.8085 20.68L42.7765 15.56C45.6778 11.8053 48.3232 8.81866 50.7125 6.6C53.1872 4.38133 55.7898 2.75999 58.5205 1.73599C61.2512 0.711995 64.4938 0.199997 68.2485 0.199997L69.0165 10.056C66.0298 10.2267 63.5125 10.696 61.4645 11.464C59.5018 12.232 57.6672 13.4693 55.9605 15.176C54.3392 16.7973 52.4192 19.016 50.2005 21.832L47.2565 25.672C44.8672 28.744 42.6058 31.2187 40.4725 33.096C38.3392 34.9733 36.1632 36.3813 33.9445 37.32C31.8112 38.1733 29.4645 38.6 26.9045 38.6ZM57.8805 94.536C53.9552 94.536 50.4992 93.768 47.5125 92.232C44.5258 90.696 41.7525 88.5627 39.1925 85.832C36.7178 83.1013 34.0725 79.9013 31.2565 76.232C28.7818 72.8187 26.6485 70.344 24.8565 68.808C23.0645 67.272 20.8885 66.504 18.3285 66.504C15.9392 66.504 13.9338 67.272 12.3125 68.808C10.7765 70.344 10.0085 72.6053 10.0085 75.592C10.0085 78.2373 10.8192 80.456 12.4405 82.248C14.1472 84.04 16.4512 84.936 19.3525 84.936C22.2538 84.936 24.6432 84.0827 26.5205 82.376C28.4832 80.6693 30.1472 78.1947 31.5125 74.952L38.2965 82.632C36.6752 84.936 34.9685 86.984 33.1765 88.776C31.3845 90.568 29.3365 91.976 27.0325 93C24.8138 94.024 22.0405 94.536 18.7125 94.536C14.1898 94.536 10.5632 93.5973 7.8325 91.72C5.10183 89.8427 3.0965 87.4533 1.8165 84.552C0.621833 81.5653 0.0245001 78.4933 0.0245001 75.336C0.0245001 71.5813 0.835167 68.3387 2.4565 65.608C4.07783 62.8773 6.25383 60.744 8.9845 59.208C11.7152 57.672 14.7445 56.904 18.0725 56.904C21.1445 56.904 23.8752 57.4587 26.2645 58.568C28.6538 59.592 31.0005 61.256 33.3045 63.56C35.6085 65.7787 38.1258 68.7227 40.8565 72.392C43.1605 75.3787 45.2085 77.768 47.0005 79.56C48.7925 81.352 50.5845 82.632 52.3765 83.4C54.1685 84.0827 56.2165 84.424 58.5205 84.424C63.0432 84.424 66.4565 83.0587 68.7605 80.328C71.0645 77.5973 72.2165 73.6293 72.2165 68.424C72.2165 63.56 71.2352 59.2933 69.2725 55.624C67.3098 51.8693 64.5792 48.7547 61.0805 46.28C57.5818 43.72 53.4858 41.8 48.7925 40.52C44.0992 39.24 39.0645 38.6 33.6885 38.6H27.4165L38.0405 29C47.5125 29.5973 55.5765 31.6453 62.2325 35.144C68.9738 38.5573 74.0938 43.1227 77.5925 48.84C81.0912 54.472 82.8405 60.9147 82.8405 68.168C82.8405 73.2027 81.9445 77.7253 80.1525 81.736C78.3605 85.7467 75.5872 88.904 71.8325 91.208C68.1632 93.4267 63.5125 94.536 57.8805 94.536ZM102.297 94.536C96.5792 94.536 91.5445 93.0853 87.1925 90.184C82.9258 87.2827 79.1285 83.4853 75.8005 78.792L80.9205 70.472C83.3098 73.6293 85.6565 76.232 87.9605 78.28C90.3498 80.328 92.7818 81.864 95.2565 82.888C97.8165 83.912 100.462 84.424 103.193 84.424C107.545 84.424 110.873 83.0587 113.177 80.328C115.481 77.512 116.633 73.5013 116.633 68.296C116.633 63.3467 115.609 59.0373 113.561 55.368C111.598 51.6133 108.91 48.4133 105.497 45.768C102.169 43.0373 98.3712 40.7333 94.1045 38.856L98.8405 29C104.131 31.2187 108.91 34.2053 113.177 37.96C117.443 41.7147 120.857 46.0667 123.417 51.016C125.977 55.9653 127.257 61.4693 127.257 67.528C127.257 75.976 125.123 82.5893 120.857 87.368C116.59 92.1467 110.403 94.536 102.297 94.536Z" fill="white"/>
</svg>
