<svg width="83" height="112" viewBox="0 0 83 112" fill="none" xmlns="http://www.w3.org/2000/svg">
<path d="M57.4785 111.536C53.4678 111.536 49.9692 110.896 46.9825 109.616C43.9958 108.251 41.1798 106.203 38.5345 103.472C35.8892 100.656 32.9878 97.1573 29.8305 92.976C28.0385 90.5013 26.5025 88.5813 25.2225 87.216C24.0278 85.7653 22.8758 84.7413 21.7665 84.144C20.7425 83.5467 19.5052 83.248 18.0545 83.248C16.0918 83.248 14.4705 84.0587 13.1905 85.68C11.9105 87.216 11.2705 89.2213 11.2705 91.696C11.2705 94.6827 11.7825 97.4987 12.8065 100.144C13.8305 102.789 15.3665 105.477 17.4145 108.208L7.0465 111.664C5.16917 108.677 3.63317 105.605 2.4385 102.448C1.32917 99.2053 0.7745 95.6213 0.7745 91.696C0.7745 88.1973 1.49983 85.0827 2.9505 82.352C4.4865 79.6213 6.5345 77.4453 9.0945 75.824C11.7398 74.2027 14.7692 73.392 18.1825 73.392C21.5105 73.392 24.2838 73.9893 26.5025 75.184C28.8065 76.2933 30.8972 77.9147 32.7745 80.048C34.7372 82.1813 36.8278 84.6987 39.0465 87.6C41.6918 91.0987 43.9532 93.872 45.8305 95.92C47.7932 97.8827 49.6705 99.2907 51.4625 100.144C53.3398 100.997 55.5158 101.424 57.9905 101.424C61.0625 101.424 63.6225 100.741 65.6705 99.376C67.7185 97.9253 69.2118 95.7067 70.1505 92.72C71.1745 89.648 71.6865 85.7227 71.6865 80.944C71.6865 75.3973 70.7478 69.8507 68.8705 64.304C66.9932 58.672 64.3905 53.4667 61.0625 48.688C57.7345 43.9093 53.8518 39.856 49.4145 36.528C44.9772 33.2 40.1985 30.9813 35.0785 29.872C34.0545 29.616 32.9878 29.4453 31.8785 29.36C30.8545 29.1893 29.7452 29.104 28.5505 29.104C25.3932 29.104 22.9612 29.7867 21.2545 31.152C19.5478 32.5173 18.6945 34.224 18.6945 36.272C18.6945 38.4053 19.2918 40.112 20.4865 41.392C21.7665 42.672 23.6012 43.312 25.9905 43.312C28.2945 43.312 30.2145 42.7147 31.7505 41.52C33.2865 40.3253 34.0545 38.2347 34.0545 35.248C34.0545 33.2 33.6278 31.3227 32.7745 29.616C31.9212 27.824 30.8972 26.3733 29.7025 25.264L38.9185 23.856C40.1132 25.7333 41.0945 27.7387 41.8625 29.872C42.7158 31.92 43.1425 34.096 43.1425 36.4C43.1425 41.1787 41.6065 45.0187 38.5345 47.92C35.5478 50.736 31.3665 52.144 25.9905 52.144C21.9798 52.144 18.7372 51.3333 16.2625 49.712C13.7878 48.0907 11.9958 46.128 10.8865 43.824C9.77717 41.4347 9.2225 39.088 9.2225 36.784C9.2225 33.2 10.0758 30.2133 11.7825 27.824C13.5745 25.3493 16.0492 23.472 19.2065 22.192C22.3638 20.912 26.0332 20.272 30.2145 20.272C36.9558 20.272 43.4412 21.8507 49.6705 25.008C55.8998 28.08 61.4465 32.3893 66.3105 37.936C71.2598 43.4827 75.1425 49.9253 77.9585 57.264C80.8598 64.5173 82.3105 72.368 82.3105 80.816C82.3105 87.8133 81.3718 93.616 79.4945 98.224C77.6172 102.747 74.8438 106.117 71.1745 108.336C67.5052 110.469 62.9398 111.536 57.4785 111.536ZM32.3905 0.815994C37.5958 0.815994 41.6492 1.92533 44.5505 4.144C47.5372 6.27733 49.7558 9.26399 51.2065 13.104L41.4785 15.664C41.0518 14.384 40.4545 13.2747 39.6865 12.336C38.9185 11.312 37.9372 10.544 36.7425 10.032C35.6332 9.51999 34.2252 9.26399 32.5185 9.26399C30.2145 9.26399 28.2092 9.86133 26.5025 11.056C24.7958 12.2507 23.9425 14 23.9425 16.304C23.9425 17.4987 24.3265 18.864 25.0945 20.4C25.9478 21.8507 27.6545 23.4293 30.2145 25.136L20.7425 28.72C18.4385 26.5867 16.7745 24.4533 15.7505 22.32C14.8118 20.1867 14.3425 17.84 14.3425 15.28C14.3425 12.208 15.1105 9.60533 16.6465 7.47199C18.2678 5.33866 20.4438 3.71733 23.1745 2.60799C25.9052 1.41333 28.9772 0.815994 32.3905 0.815994Z" fill="white"/>
</svg>
